# xmcd
#
# Track frame offsets:
#	182
#	10737
#	24462
#	34467
#	44600
#	55015
#	68010
#	80725
#	94482
#	107675
#	117312
#	129867
#	139650
#	151665
#	174430
#	190107
#	196005
#	206720
#	218647
#	230672
#	249067
#	260772
#	274240
#	285875
#	298852
#
# Disc length: 4134
#
# Revision: 1
# Processed by: cddbd v1.5.1PL0 Copyright (c) Steve Scherf et al.
# Submitted via: audiograbber 1.80.04
# Normalized: r0:TDELIM( - )
#
DISCID=64102419
DTITLE=Various Artist - Play Me The Blues - The Legendary Blues Singers 1
DYEAR=1900
DGENRE=
TTITLE0=Howlin´ Wolf - Little Red Rooster
TTITLE1=Jeff Beck - Jeff´ Blues
TTITLE2=John Lee Hooker - Dimples
TTITLE3=John Mayall - Road Show
TTITLE4=Howlin´ Wolf - Who´s Been Talkin´
TTITLE5=Elmore James - Dust My Broom
TTITLE6=Muddy Waters - I Just Wanna Make Love To You
TTITLE7=Eric Clapton - Draggin´ My Tail
TTITLE8=B.B. King - When My Heart Beats Like A Hammer
TTITLE9=John Lee Hooker - I Wanna Walk
TTITLE10=Little Walter - I Got To Find My Baby
TTITLE11=Howlin´ Wolf - Shake For Me
TTITLE12=Elmore James - Mean Mistreatin´ Mama
TTITLE13=Muddy Waters - Who´s Gonna Be Your Sweet Man When I´m Gone
TTITLE14=Lightnin´ Hopkins - Coffee For Mama
TTITLE15=Eric Clapton - Choker
TTITLE16=Little Walter - Blue Midnight
TTITLE17=John Lee Hooker - I´m In The Mood
TTITLE18=Howlin´ Wolf - Spoonful
TTITLE19=Mike Bloomfield - Vamp In C
TTITLE20=Elmore James - Pickin´ The Blues
TTITLE21=B.B. King - Three O´Clock Blues
TTITLE22=John Mayall - Lost And Gone
TTITLE23=Little Walter - Roller Coaster
TTITLE24=Big Joe Williams - Bye, Bye Baby Blues
EXTD=
EXTT0=
EXTT1=
EXTT2=
EXTT3=
EXTT4=
EXTT5=
EXTT6=
EXTT7=
EXTT8=
EXTT9=
EXTT10=
EXTT11=
EXTT12=
EXTT13=
EXTT14=
EXTT15=
EXTT16=
EXTT17=
EXTT18=
EXTT19=
EXTT20=
EXTT21=
EXTT22=
EXTT23=
EXTT24=
PLAYORDER=
